<?xml version="1.0" encoding="UTF-8" standalone="no"?><!DOCTYPE svg PUBLIC "-//W3C//DTD SVG 1.1//EN" "http://www.w3.org/Graphics/SVG/1.1/DTD/svg11.dtd"><svg width="100%" height="100%" viewBox="0 0 334 250" version="1.1" xmlns="http://www.w3.org/2000/svg" xmlns:xlink="http://www.w3.org/1999/xlink" xml:space="preserve" xmlns:serif="http://www.serif.com/" style="fill-rule:evenodd;clip-rule:evenodd;stroke-linejoin:round;stroke-miterlimit:2;"><path d="M162.795,10.487l-37.579,226.048l-0.592,2.978l39.374,-0l37.579,-226.048l0.591,-2.978l-39.373,0Zm-56.665,34.602l-10.134,6.566l-76.342,47.713l-8.951,5.363l0,40.576l8.951,5.363l76.342,47.714l10.134,6.565l0,-45.328l-55.462,-34.602l55.462,-34.602l0,-45.328Zm114.513,0l0,45.328l55.463,34.602l-55.463,34.602l0,45.328l10.135,-6.565l76.341,-47.714l8.951,-5.363l0,-40.576l-8.951,-5.363l-76.341,-47.713l-10.135,-6.566Z" style="fill:#fff;fill-rule:nonzero;"/></svg>